<svg xmlns="http://www.w3.org/2000/svg" xmlns:xlink="http://www.w3.org/1999/xlink" width="714" zoomAndPan="magnify" viewBox="0 0 535.92 440.88" height="577" preserveAspectRatio="xMidYMid meet" version="1.2"><defs><clipPath id="d7a1e6591d"><path d="M 51.394531 0 L 484.027344 0 L 484.027344 432.632812 L 51.394531 432.632812 Z M 51.394531 0 "/></clipPath></defs><g id="4e14c80122"><g clip-rule="nonzero" clip-path="url(#d7a1e6591d)"><path style=" stroke:none;fill-rule:nonzero;fill:#000000;fill-opacity:1;" d="M 478.675781 317.59375 C 481.832031 326.035156 483.675781 335.101562 483.953125 344.582031 C 484.023438 345.484375 484.023438 346.390625 484.023438 347.328125 C 484.023438 394.425781 445.816406 432.628906 398.71875 432.628906 C 206.890625 432.628906 51.394531 277.132812 51.394531 85.304688 C 51.394531 38.207031 89.601562 0 136.699219 0 C 137.636719 0 138.539062 0 139.441406 0.0703125 C 148.921875 0.347656 158.023438 2.191406 166.460938 5.347656 L 198.488281 144.003906 C 198.488281 144.070312 198.453125 144.105469 198.382812 144.140625 L 139.648438 170.539062 L 139.476562 170.605469 C 166.429688 252.679688 231.34375 317.59375 313.417969 344.550781 L 313.488281 344.375 L 339.917969 285.605469 L 478.675781 317.59375 "/></g></g></svg>